<svg width="48" height="48" viewBox="0 0 48 48" fill="none" xmlns="http://www.w3.org/2000/svg">
<path d="M40.5 5.5H7.5C6.96957 5.5 6.46086 5.71071 6.08579 6.08579C5.71071 6.46086 5.5 6.96957 5.5 7.5V40.5C5.5 41.0304 5.71071 41.5391 6.08579 41.9142C6.46086 42.2893 6.96957 42.5 7.5 42.5H40.5C41.0304 42.5 41.5391 42.2893 41.9142 41.9142C42.2893 41.5391 42.5 41.0304 42.5 40.5V7.5C42.5 6.96957 42.2893 6.46086 41.9142 6.08579C41.5391 5.71071 41.0304 5.5 40.5 5.5Z" stroke="#915EFF" stroke-linecap="round" stroke-linejoin="round"/>
<path d="M12.71 36.3C13.9305 36.3 14.92 35.3105 14.92 34.09C14.92 32.8694 13.9305 31.88 12.71 31.88C11.4895 31.88 10.5 32.8694 10.5 34.09C10.5 35.3105 11.4895 36.3 12.71 36.3Z" stroke="#915EFF" stroke-linecap="round" stroke-linejoin="round"/>
<path d="M12.71 31.88V12.77C12.7753 12.4848 12.9297 12.2277 13.1507 12.0359C13.3717 11.8442 13.648 11.7276 13.9396 11.7031C14.2312 11.6786 14.523 11.7475 14.773 11.8997C15.0229 12.0519 15.2179 12.2797 15.33 12.55L22.7 33.8C22.7724 34.0899 22.9397 34.3473 23.1753 34.5312C23.4108 34.7151 23.7011 34.815 24 34.815C24.2988 34.815 24.5891 34.7151 24.8246 34.5312C25.0602 34.3473 25.2275 34.0899 25.3 33.8L32.65 12.55C32.762 12.2797 32.957 12.0519 33.207 11.8997C33.4569 11.7475 33.7487 11.6786 34.0403 11.7031C34.3319 11.7276 34.6082 11.8442 34.8292 12.0359C35.0502 12.2277 35.2046 12.4848 35.27 12.77V31.88" stroke="#915EFF" stroke-linecap="round" stroke-linejoin="round"/>
<path d="M35.29 36.3C36.5105 36.3 37.5 35.3105 37.5 34.09C37.5 32.8694 36.5105 31.88 35.29 31.88C34.0694 31.88 33.08 32.8694 33.08 34.09C33.08 35.3105 34.0694 36.3 35.29 36.3Z" stroke="#915EFF" stroke-linecap="round" stroke-linejoin="round"/>
</svg>
