<svg width="286" height="36" viewBox="0 0 286 36" fill="none" xmlns="http://www.w3.org/2000/svg">
<path d="M26.1259 2.86743H27.6545C31.8213 2.86743 34.3124 4.28278 35.1276 7.11349C35.388 8.03064 35.5183 9.08933 35.5183 10.2896V26H26.1259V2.86743ZM13.5236 2.86743H22.9669V26H13.5236V2.86743ZM0.887326 2.86743H10.3306V26H0.887326V2.86743ZM62.2685 27.1379C62.2685 32.4937 59.5793 35.1715 54.2009 35.1715H53.1479V8.67605H62.2685V27.1379ZM40.6305 8.67605H50.0228V26H48.4942C44.3274 26 41.8421 24.5846 41.0381 21.7539C40.7664 20.8368 40.6305 19.7781 40.6305 18.5779V8.67605ZM92.6703 2.85044H102.063V18.5779C102.063 21.0802 101.491 22.9202 100.347 24.0978C99.0904 25.3659 97.0353 26 94.1819 26H92.6703V2.85044ZM67.4657 2.85044H76.858V26H75.3464C71.1682 26 68.6772 24.5846 67.8733 21.7539C67.6015 20.8368 67.4657 19.7781 67.4657 18.5779V2.85044ZM80.051 2.86743H89.4943V26.017H80.051V2.86743ZM119.522 8.67605H120.643C124.923 8.67605 127.533 10.1254 128.473 13.024C128.779 13.9865 128.932 15.1018 128.932 16.3699V18.2382H119.522V8.67605ZM107.26 17.5418C107.26 16.2963 107.424 15.1414 107.752 14.077C108.081 13.0014 108.59 12.0616 109.281 11.2577C110.776 9.53658 112.916 8.67605 115.701 8.67605H117.009V26H116.126C113.272 26 111.064 25.2187 109.502 23.6562C108.007 22.1616 107.26 20.1234 107.26 17.5418ZM119.522 21.5671H128.015V22.0427C128.015 23.0957 127.635 23.9845 126.877 24.7092C125.948 25.5697 124.629 26 122.919 26H119.522V21.5671ZM133.314 0.0140684H142.451V25.966H133.314V0.0140684ZM145.271 8.67605H146.578C149.364 8.67605 151.493 9.53658 152.964 11.2577C154.312 12.8315 154.986 14.9036 154.986 17.4739C154.986 20.0895 154.244 22.1502 152.761 23.6562C151.221 25.2187 149.018 26 146.154 26H145.271V8.67605ZM171.681 10.0857C171.681 7.54942 172.327 5.72078 173.617 4.59982C174.942 3.45621 177.065 2.88441 179.986 2.88441H181.022V15.0961C181.022 20.3612 179.517 23.7354 176.505 25.2187C175.452 25.7396 174.189 26 172.717 26H171.681V10.0857ZM167.673 26C164.831 26 162.713 25.0093 161.321 23.0278C160.03 21.1935 159.385 18.5496 159.385 15.0961V2.88441H160.421C163.342 2.88441 165.465 3.45621 166.79 4.59982C168.08 5.72078 168.726 7.54942 168.726 10.0857V26H167.673ZM197.684 8.67605H198.805C203.085 8.67605 205.695 10.1254 206.635 13.024C206.94 13.9865 207.093 15.1018 207.093 16.3699V18.2382H197.684V8.67605ZM185.421 17.5418C185.421 16.2963 185.586 15.1414 185.914 14.077C186.242 13.0014 186.752 12.0616 187.443 11.2577C188.937 9.53658 191.077 8.67605 193.863 8.67605H195.17V26H194.287C191.434 26 189.226 25.2187 187.663 23.6562C186.169 22.1616 185.421 20.1234 185.421 17.5418ZM197.684 21.5671H206.176V22.0427C206.176 23.0957 205.797 23.9845 205.038 24.7092C204.11 25.5697 202.791 26 201.081 26H197.684V21.5671ZM224.4 13.4996C224.4 10.2839 226.478 8.67605 230.634 8.67605H233.011V17.338H224.4V13.4996ZM212.511 8.67605H221.955V26H212.511V8.67605ZM239.296 15.198C239.262 15.0621 239.233 14.9149 239.211 14.7564L239.143 14.2809C239.097 13.9412 239.075 13.5449 239.075 13.092C239.075 12.6277 239.177 12.0955 239.38 11.4954C239.596 10.8953 239.941 10.3745 240.416 9.93288C241.436 8.98176 243.009 8.5062 245.138 8.5062L257.757 19.5969C257.871 20.0046 257.927 20.548 257.927 21.2274C257.927 21.8955 257.814 22.5352 257.588 23.1466C257.361 23.7468 256.999 24.2676 256.501 24.7092C255.436 25.683 253.885 26.1698 251.847 26.1698L239.414 15.198H239.296ZM258.046 8.67605C258.386 9.1969 258.556 9.91024 258.556 10.8161C258.556 12.4918 257.927 13.743 256.67 14.5696L249.86 8.67605H258.046ZM238.803 26C238.463 25.4791 238.293 24.7658 238.293 23.86C238.293 22.1955 238.916 20.95 240.162 20.1234L246.989 26H238.803ZM275.914 8.67605H277.035C281.315 8.67605 283.925 10.1254 284.864 13.024C285.17 13.9865 285.323 15.1018 285.323 16.3699V18.2382H275.914V8.67605ZM263.651 17.5418C263.651 16.2963 263.815 15.1414 264.144 14.077C264.472 13.0014 264.981 12.0616 265.672 11.2577C267.167 9.53658 269.307 8.67605 272.092 8.67605H273.4V26H272.517C269.663 26 267.455 25.2187 265.893 23.6562C264.398 22.1616 263.651 20.1234 263.651 17.5418ZM275.914 21.5671H284.406V22.0427C284.406 23.0957 284.026 23.9845 283.268 24.7092C282.339 25.5697 281.02 26 279.31 26H275.914V21.5671Z" fill="white"/>
</svg>
